<svg xmlns="http://www.w3.org/2000/svg" viewBox="-142.70398394810096 -327.5277062102 285.4079678962018 123.67320454776788" width="1078.707280237613" height="467.42628490494945"><g stroke="#000000" fill="none"><path stroke="#000000" stroke-width="0.1" stroke-linejoin="round" d="M 142.70398394810084 -294.80497163490185 A 327.5277062102 327.5277062102 0 0 0 -142.70398394810096 -294.80497163490173 L  -98.678286772623 -203.85450166243209 A 226.4819245070532 226.4819245070532 0  0  1  98.67828677262293 -203.8545016624321 Z" fill="rgba(100,200,100,0.1)"/><path stroke="#000000" stroke-width="0.05" stroke-linejoin="round" d="M -138.34697899119752 -285.8040545813167 L -142.7039839481008 -294.80497163490185 M -139.63754493772927 -290.7326560897085 L -141.80228214090653 -295.239751921969 M -138.74830398655806 -291.1580832023503 L -140.89925569264392 -295.67177423720045 M -137.85776692294885 -291.5807904719222 L -139.99491303890304 -296.10103454487466 M -136.9659420658225 -292.0007739497189 L -139.08926262756918 -296.5275288350715 M -135.3696793552584 -290.90695524206944 L -138.18231291874412 -296.9512531237095 M -135.1784623067736 -292.83255386242365 L -137.2740723846668 -297.3722034525829 M -134.28282410253078 -293.2443425272888 L -136.3645495096345 -297.79037588939894 M -133.38593149997445 -293.6533918603652 L -135.45375278992344 -298.20576652781443 M -132.48779287739544 -294.05969804053296 L -134.54169073370937 -298.61837148747225 M -129.54846138846068 -289.8983276305567 L -133.6283718609881 -299.0281869140375 M -130.6878111434532 -294.8640657858231 L -132.71380470349607 -299.4352089792338 M -129.7859848465565 -295.26211983697215 L -131.7979978046304 -299.8394338808785 M -128.88294615841312 -295.65741570733627 L -130.8809597193693 -300.240857842919 M -127.97870351472751 -296.049949704273 L -129.962699014192 -300.6394771154674 M -126.41661239426801 -294.9078615563075 L -129.0432242669988 -301.0352879748355 M -126.16664015970166 -296.82671743632756 L -128.12254406703101 -301.42828672357007 M -125.25883637568799 -297.2109439152968 L -127.20066701479055 -301.81846969048706 M -124.3498624906271 -297.59239400860906 L -126.27760172195975 -302.2058332307059 M -123.43972699566677 -297.97106415296156 L -125.35335681132078 -302.59037372568343 M -120.62893586893674 -293.7218140387925 L -124.42794091667521 -302.97208758324825 M -121.61600519481537 -298.7200504714535 L -123.50136268276331 -303.35097123763364 M -120.70243592515784 -299.0903596489634 L -122.57363076518335 -303.72702114951113 M -119.78773911790881 -299.4578748843198 L -121.6447538303106 -304.1002338060236 M -118.87192331767659 -299.82259274439195 L -120.71474055521655 -304.47060572081807 M -117.34546289683406 -298.6333019515483 L -119.78359962758775 -304.83813343407815 M -117.03696896888096 -300.5436227368504 L -118.85133974564462 -305.20281351255665 M -116.11784756147952 -300.8999281337603 L -117.91796961806034 -305.5646425496073 M -115.19764144325876 -301.2534226844958 L -116.98349796387937 -305.9236171652168 M -114.276359210292 -301.60410308689995 L -116.04793351243606 -306.2797340060362 M -111.596733934137 -297.27094238479566 L -115.11128500327304 -306.6329897454126 M -112.43060083459577 -302.29700836955845 L -114.17356118605967 -306.98338108341983 M -111.50614193395374 -302.6392267770621 L -113.23477082051028 -307.33090474688936 M -110.5806414025795 -302.978618090794 L -112.29492267630225 -307.6755574894411 M -109.65410788600396 -303.31517914034185 L -111.35402553299424 -308.0173360915134 M -108.16470399256211 -302.07979658884545 L -110.41208817994409 -308.3562373603935 M -107.79797652753965 -303.97979789746074 L -109.46911941622663 -308.6922581302469 M -106.8683960246372 -304.30784939651886 L -108.52512805055171 -309.0253952621474 M -105.93781721434402 -304.6330582144251 L -107.5801229011817 -309.35564564410606 M -105.00624878962964 -304.95542131325277 L -106.63411279584922 -309.6830061911005 M -102.46029233374122 -300.5423975182127 L -105.68710657167463 -310.00747384510356 M -103.14017791495597 -305.5915983349089 L -104.73911307508354 -310.329045575112 M -102.20569289683262 -305.905406314912 L -103.79014116172404 -310.6477183771747 M -101.27025312779702 -306.2163566902411 L -102.84019969638416 -310.96348927442097 M -100.33386734622721 -306.5244465561642 L -101.889297552909 -311.27635531708773 M -98.8829111944117 -305.244126185378 L -100.93744361411767 -311.586313582548 M -98.45829274310054 -307.1320332744974 L -99.98464677172053 -311.89336117533725 M -97.51912144215837 -307.4315244511575 L -99.030915926236 -312.19749522718126 M -96.57903916974762 -307.7281437669643 L -98.07625998690749 -312.49871289702236 M -95.63805470761403 -308.02188845105877 L -97.12068787162016 -312.7970113710462 M -93.22814518504465 -303.5331236561626 L -96.16420850681754 -313.09238786270805 M -93.75341438321799 -308.6007429749671 L -95.20683082741823 -313.38483961275864 M -92.8097761262573 -308.8858474074315 L -94.24856377673238 -313.6743638892702 M -91.86527089001294 -309.1680663935356 L -93.28941630637823 -313.9609579876618 M -90.91990749754754 -309.44739729694044 L -92.32939737619836 -314.2446192307247 M -89.50875438852832 -308.1233350214991 L -91.3685159541761 -314.52534496864723 M -89.02664157620417 -309.9973844452162 L -90.40678101635173 -314.8031325790398 M -88.07875673320368 -310.2680355524014 L -89.44420154673855 -315.0779794669591 M -87.13004910557198 -310.53578830156385 L -88.48078653723913 -315.3498830649325 M -86.18052755562826 -310.8006401915007 L -87.5165449875611 -315.6188408329821 M -83.9089160014566 -306.24032723756613 L -86.55148590513328 -315.8848502586482 M -84.27907817601476 -311.32163152439995 L -85.58561830502136 -316.14790885701314 M -83.327168108668 -311.5777661005401 L -84.61895120984383 -316.4080141707241 M -82.37447964348925 -311.8309900838553 L -83.65149364968758 -316.6651637700165 M -81.4210216799846 -312.0813011088626 L -82.68325466202369 -316.9193552527362 M -80.0509897359235 -310.7147337015995 L -81.71424329162281 -317.1705862443625 M -79.51183289187975 -312.5731749580998 L -80.74446859047086 -317.4188543980297 M -78.55611990189995 -312.81473318750733 L -79.77393961768435 -317.66415739454953 M -77.59967308266846 -313.0533692690051 L -78.80266543942578 -317.9064929424327 M -76.64250136879986 -313.28908097338245 L -77.830655128819 -318.14585877791006 M -74.51130963749621 -308.6614795325394 L -76.8579177658644 -318.38225266495414 M -74.72601902938399 -313.75172247054394 L -75.88446243735409 -318.6156723952996 M -73.76672630658959 -313.97864794157863 L -74.91029823678701 -318.8461157884642 M -72.80674449449657 -314.20264039203454 L -73.93543426428407 -319.073580691769 M -71.84608256074152 -314.423697729494 L -72.95987962650302 -319.29806498035856 M -70.51845149356802 -313.01590166620315 L -71.98364343655346 -319.51956655722074 M -69.92275423047454 -314.8569988328634 L -71.00673481391168 -319.7380833532063 M -68.96010580066705 -315.0692385511062 L -70.02916288433545 -319.95361332704823 M -67.99681318243861 -315.2785350610562 L -69.05093677977885 -320.16615446538077 M -67.03288537435358 -315.48488640757716 L -68.07206563830688 -320.3757047827583 M -65.04410415780973 -310.7943190044166 L -67.09255860401012 -320.5822623216739 M -65.10316021245512 -315.88874592736676 L -66.11242482691937 -320.78582515257744 M -64.13738088510193 -316.08625032799586 L -65.13167346292006 -320.986391373894 M -63.171002420644214 -316.2808020199519 L -64.15031367366683 -321.183959112041 M -62.20403384647269 -316.47239918583733 L -63.1683546264979 -321.3785265214465 M -60.920043762537524 -315.02468945294964 L -62.18580549434941 -321.5700917845657 M -60.268362506028964 -316.8467228078191 L -61.2026754556698 -321.7586531118985 M -59.29967782176304 -317.02944576718454 L -60.218973694334 -321.9442087420058 M -58.33043919162687 -317.2092072070497 L -59.23470939955765 -322.1267569415261 M -57.36065566972931 -317.3860054481795 L -58.249891765811334 -322.3062960051918 M -55.51614263780395 -312.63685342219344 L -57.26452999273458 -322.4828242558451 M -55.41949019245109 -317.7307057557105 L -56.27863328504998 -322.65634004445343 M -54.44812637039999 -317.8986046021058 L -55.29221085247724 -322.826841750125 M -53.476253923077145 -318.0635338097841 L -54.30527190964704 -322.9943277801243 M -52.503881929195146 -318.2254918380647 L -53.317825676015104 -323.1587965698863 M -51.2647321709187 -316.739220704353 L -52.32988137577593 -323.3202465830315 M -50.55767563985139 -318.5404883325017 L -51.341448237776696 -323.47867631138035 M -49.583859524807764 -318.6935238561292 L -50.352535495431084 -323.634084274967 M -48.609580223871326 -318.8435823153292 L -49.363152386632926 -323.7864690220534 M -47.63484683823821 -318.99066230833574 L -48.373308153670024 -323.93582912914275 M -45.93632490355482 -314.18736172141956 L -47.383012043137704 -324.08216320099285 M -45.68405423879014 -319.27588142783407 L -46.3922733058525 -324.225469870629 M -44.708013248236185 -319.4140178899614 L -45.40110119676577 -324.36574779935705 M -43.731554619337224 -319.5491705571914 L -44.40950497487716 -324.5029956767756 M -42.75468747364742 -319.68133816700004 L -43.417493903148134 -324.63721222078834 M -41.56153549924437 -318.1578939204588 L -42.42507724841552 -324.7683961776162 M -40.79976413710765 -319.936713303693 L -41.43226428130483 -324.8965463218087 M -39.82172620810579 -320.05991844499954 L -40.439064276143775 -325.02166145625586 M -38.84331628583871 -320.1801337577511 L -39.44548651087549 -325.14374041219895 M -37.86454351008855 -320.2973581189606 L -38.45154026697199 -325.2627820492417 M -36.31359921870666 -315.4443956118007 L -37.45723482934744 -325.3787852553608 M -35.905945974130084 -320.5228296345144 L -36.46257948627135 -325.49174894691635 M -34.926139510092256 -320.6310746826244 L -35.46758352928188 -325.60167206866197 M -33.94600678474148 -320.7363245667434 L -34.472256253099054 -325.7085535937547 M -32.965556953953346 -320.83857830368333 L -33.47660695553784 -325.81239252376434 M -31.819517256280548 -319.2793839547648 L -32.48064493742144 -325.9131878886834 M -31.00374261429327 -321.03409354322434 L -31.48437950249424 -326.01093874693527 M -30.022396431641457 -321.1273532194267 L -30.487819957335013 -326.1056441853839 M -29.040769795821472 -321.21761309566944 L -29.490975611270002 -326.1973033193416 M -28.058871876664227 -321.30487232879307 L -28.493855776285823 -326.2859152925779 M -26.656953926127148 -316.40678093001014 L -27.496469766942642 -326.371479277327 M -26.09429888024709 -321.47038563320484 L -26.49882690028703 -326.45399447429605 M -25.11164215497723 -321.54863815835614 L -25.500936495764982 -326.5334601126721 M -24.128750850178836 -321.6238869481293 L -24.50280787513491 -326.6098754501298 M -23.145634147496704 -321.69613129959043 L -23.50445036238046 -326.68323977283785 M -22.047777213033747 -320.1026432520064 L -22.505873283623465 -326.753552395466 M -21.178761285502404 -321.83160401617613 L -21.507085967036886 -326.8208126611914 M -20.195023499664412 -321.8948311157871 L -20.508097742757542 -326.88501994170457 M -19.211097062719418 -321.95505124607047 L -19.50891794279908 -326.94617363721545 M -18.22699116598187 -322.01226384448205 L -18.509555900964713 -327.00427317645887 M -16.97540905212521 -317.0736187364444 L -17.51002095276004 -327.0593180167001 M -16.258277766683147 -322.11766433599144 L -16.51032243530593 -327.1113076437397 M -15.273688654789465 -322.1658512444943 L -15.510469687251142 -327.1602415719183 M -14.288956864266433 -322.21102865194456 L -14.510472048685257 -327.2061193441214 M -13.30409159395168 -322.25319613631893 L -13.510338861051288 -327.2489405317833 M -12.255442902886815 -320.62690282665136 L -12.510079467058473 -327.28870473489144 M -11.333997415446108 -322.32849978833667 L -11.509703210595058 -327.32541158198995 M -10.3487869108213 -322.3616352525336 L -10.509219436640906 -327.359060730183 M -9.363479733364818 -322.39175938676834 L -9.50863749118024 -327.3896518651382 M -8.378085087289303 -322.41887190963746 L -8.507966721114416 -327.4171847010897 M -7.278007881074353 -317.4442861549001 L -7.5072164741744585 -327.4416589808404 M -6.407070210130943 -322.46406113633117 L -6.506396098833902 -327.46307447576464 M -5.421468391214782 -322.4821374180222 L -5.505514944221324 -327.48143098581033 M -4.43581592784089 -322.4972012440843 L -4.5045823600330746 -327.49672833950075 M -3.450122027447379 -322.5092524737993 L -3.5036076964459806 -327.50896639393625 M -2.4516610958025375 -320.8516729811895 L -2.5026003040298823 -327.5181450347955 M -1.478646747203138 -322.5243167220265 L -1.5015695336604271 -327.52426417633654 M -0.49288378381993275 -322.5273295998166 L -0.5005247364315931 -327.5273237613975 M 0.4928837838199506 -322.5273295998166 L 0.5005247364316113 -327.5273237613975 M 1.478646747203156 -322.5243167220265 L 1.5015695336604453 -327.52426417633654 M 2.426191491688883 -317.5184369543865 L 2.5026003040299 -327.5181450347955 M 3.450122027447397 -322.5092524737993 L 3.503607696445999 -327.50896639393625 M 4.435815927840908 -322.4972012440843 L 4.504582360033092 -327.49672833950075 M 5.4214683912148 -322.4821374180222 L 5.505514944221343 -327.48143098581033 M 6.407070210130961 -322.46406113633117 L 6.506396098833919 -327.46307447576464 M 7.354410745441072 -320.77674376354685 L 7.507216474174476 -327.4416589808404 M 8.378085087289323 -322.41887190963746 L 8.507966721114434 -327.4171847010897 M 9.363479733364835 -322.39175938676834 L 9.50863749118026 -327.3896518651382 M 10.3487869108213 -322.3616352525336 L 10.509219436640906 -327.359060730183 M 11.333997415446126 -322.32849978833667 L 11.509703210595076 -327.32541158198995 M 12.128124620801003 -317.29600187253135 L 12.51007946705849 -327.28870473489144 M 13.304091593951698 -322.25319613631893 L 13.510338861051306 -327.2489405317833 M 14.288956864266451 -322.21102865194456 L 14.510472048685275 -327.2061193441214 M 15.273688654789483 -322.1658512444943 L 15.51046968725116 -327.1602415719183 M 16.258277766683147 -322.11766433599144 L 16.51032243530593 -327.1113076437397 M 17.153613019003522 -320.4021851631963 L 17.510020952760076 -327.0593180167001 M 18.22699116598189 -322.01226384448205 L 18.50955590096473 -327.00427317645887 M 19.211097062719436 -321.95505124607047 L 19.508917942799098 -326.94617363721545 M 20.19502349966443 -321.8948311157871 L 20.50809774275756 -326.88501994170457 M 21.178761285502404 -321.83160401617613 L 21.507085967036886 -326.8208126611914 M 21.818729177738923 -316.7771886802766 L 22.505873283623504 -326.753552395466 M 23.145634147496725 -321.69613129959043 L 23.504450362380478 -326.68323977283785 M 24.128750850178854 -321.6238869481293 L 24.502807875134927 -326.6098754501298 M 25.111642154977247 -321.54863815835614 L 25.500936495765 -326.5334601126721 M 26.09429888024709 -321.47038563320484 L 26.49882690028703 -326.45399447429605 M 26.93679253973231 -319.7283470457824 L 27.496469766942642 -326.371479277327 M 28.058871876664263 -321.30487232879307 L 28.49385577628586 -326.2859152925779 M 29.04076979582149 -321.21761309566944 L 29.49097561127002 -326.1973033193416 M 30.022396431641475 -321.1273532194267 L 30.48781995733503 -326.1056441853839 M 31.00374261429327 -321.03409354322434 L 31.48437950249424 -326.01093874693527 M 31.488953415710107 -315.9624819878055 L 32.48064493742144 -325.9131878886834 M 32.96555695395338 -320.83857830368333 L 33.476606955537875 -325.81239252376434 M 33.94600678474149 -320.7363245667434 L 34.472256253099076 -325.7085535937547 M 34.92613951009227 -320.6310746826244 L 35.467583529281896 -325.60167206866197 M 35.905945974130084 -320.5228296345144 L 36.46257948627135 -325.49174894691635 M 36.694811088920254 -318.7558588263207 L 37.45723482934744 -325.3787852553608 M 37.86454351008859 -320.2973581189606 L 38.451540266972025 -325.2627820492417 M 38.843316285838725 -320.1801337577511 L 39.44548651087551 -325.14374041219895 M 39.8217262081058 -320.05991844499954 L 40.43906427614379 -325.02166145625586 M 40.799764137107665 -319.936713303693 L 41.43226428130485 -324.8965463218087 M 41.1297646246588 -314.8526427918801 L 42.42507724841552 -324.7683961776162 M 42.75468747364746 -319.68133816700004 L 43.41749390314817 -324.63721222078834 M 43.73155461933724 -319.5491705571914 L 44.40950497487718 -324.5029956767756 M 44.708013248236206 -319.4140178899614 L 45.401101196765794 -324.36574779935705 M 45.68405423879016 -319.27588142783407 L 46.39227330585252 -324.225469870629 M 46.41855395008245 -317.4856288812773 L 47.383012043137704 -324.08216320099285 M 47.634846838238246 -318.9906623083357 L 48.37330815367006 -323.93582912914275 M 48.60958022387136 -318.8435823153292 L 49.36315238663296 -323.7864690220534 M 49.583859524807785 -318.6935238561292 L 50.352535495431106 -323.634084274967 M 50.55767563985141 -318.5404883325017 L 51.34144823777671 -323.47867631138035 M 50.73215756849009 -313.44870776501375 L 52.32988137577593 -323.3202465830315 M 52.503881929195146 -318.2254918380647 L 53.317825676015104 -323.1587965698863 M 53.47625392307718 -318.0635338097841 L 54.305271909647075 -322.9943277801243 M 54.448126370400004 -317.8986046021058 L 55.292210852477254 -322.826841750125 M 55.41949019245111 -317.7307057557105 L 56.27863328504999 -322.65634004445343 M 56.098938422780826 -315.91884370007733 L 57.26452999273458 -322.4828242558451 M 57.36065566972931 -317.3860054481795 L 58.249891765811334 -322.3062960051918 M 58.33043919162691 -317.2092072070497 L 59.23470939955769 -322.1267569415261 M 59.299677821763055 -317.0294457671845 L 60.21897369433402 -321.94420874200574 M 60.26836250602898 -316.8467228078191 L 61.20267545566982 -321.7586531118985 M 60.28716289663161 -311.7519882871416 L 62.18580549434943 -321.5700917845657 M 62.20403384647269 -316.47239918583733 L 63.1683546264979 -321.3785265214465 M 63.17100242064424 -316.2808020199519 L 64.15031367366686 -321.183959112041 M 64.13738088510195 -316.08625032799586 L 65.13167346292009 -320.986391373894 M 65.10316021245514 -315.88874592736676 L 66.11242482691938 -320.78582515257744 M 65.7269223065432 -314.0569667768357 L 67.09255860401014 -320.5822623216739 M 67.03288537435358 -315.48488640757716 L 68.07206563830688 -320.3757047827583 M 67.99681318243864 -315.2785350610562 L 69.0509367797789 -320.16615446538077 M 68.96010580066708 -315.0692385511062 L 70.02916288433548 -319.95361332704823 M 69.92275423047457 -314.8569988328634 L 71.00673481391169 -319.7380833532063 M 69.78585552207531 -309.7640692206943 L 71.98364343655348 -319.51956655722074 M 71.84608256074154 -314.423697729494 L 72.95987962650302 -319.29806498035856 M 72.80674449449657 -314.20264039203454 L 73.93543426428407 -319.073580691769 M 73.76672630658962 -313.97864794157863 L 74.91029823678704 -318.8461157884642 M 74.726019029384 -313.75172247054394 L 75.8844624373541 -318.6156723952996 M 75.29351234695228 -311.9017372433443 L 76.85791776586441 -318.38225266495414 M 76.64250136879987 -313.28908097338245 L 77.83065512881902 -318.14585877791006 M 77.59967308266846 -313.0533692690051 L 78.80266543942578 -317.9064929424327 M 78.55611990189998 -312.81473318750733 L 79.77393961768438 -317.66415739454953 M 79.51183289187978 -312.5731749580998 L 80.74446859047089 -317.4188543980297 M 79.21936295807387 -307.4868074302181 L 81.71424329162282 -317.1705862443625 M 81.42102167998462 -312.0813011088626 L 82.6832546620237 -316.9193552527362 M 82.37447964348925 -311.8309900838553 L 83.65149364968758 -316.6651637700165 M 83.32716810866802 -311.5777661005401 L 84.61895120984386 -316.4080141707241 M 84.27907817601478 -311.32163152439995 L 85.58561830502137 -316.14790885701314 M 84.7897726360155 -309.45516824459344 L 86.5514859051333 -315.8848502586482 M 86.18052755562829 -310.8006401915007 L 87.51654498756112 -315.6188408329821 M 87.13004910557198 -310.53578830156385 L 88.48078653723913 -315.3498830649325 M 88.07875673320372 -310.26803555240133 L 89.4442015467386 -315.07797946695905 M 89.0266415762042 -309.9973844452162 L 90.40678101635176 -314.8031325790398 M 88.57887360570446 -304.922330047925 L 91.36851595417612 -314.52534496864723 M 90.91990749754757 -309.44739729694044 L 92.32939737619837 -314.2446192307247 M 91.86527089001295 -309.1680663935356 L 93.28941630637824 -313.9609579876618 M 92.80977612625735 -308.8858474074315 L 94.24856377673241 -313.6743638892702 M 93.753414383218 -308.6007429749671 L 95.20683082741824 -313.38483961275864 M 94.20683295896897 -306.7195450583444 L 96.16420850681757 -313.09238786270805 M 95.63805470761405 -308.02188845105877 L 97.12068787162018 -312.7970113710462 M 96.57903916974763 -307.7281437669643 L 98.07625998690752 -312.49871289702236 M 97.51912144215837 -307.4315244511575 L 99.030915926236 -312.19749522718126 M 98.45829274310056 -307.1320332744974 L 99.98464677172055 -311.89336117533725 M 97.85564498455875 -302.07303248679295 L 100.9374436141177 -311.5863135825479 M 100.33386734622722 -306.5244465561642 L 101.88929755290903 -311.27635531708773 M 101.27025312779705 -306.2163566902411 L 102.84019969638419 -310.96348927442097 M 102.20569289683262 -305.905406314912 L 103.79014116172404 -310.6477183771747 M 103.140177914956 -305.5915983349089 L 104.73911307508355 -310.329045575112 M 103.53589707971904 -303.6974229605096 L 105.68710657167466 -310.00747384510356 M 105.00624878962965 -304.9554213132527 L 106.63411279584923 -309.68300619110045 M 105.93781721434405 -304.6330582144251 L 107.58012290118171 -309.35564564410606 M 106.8683960246372 -304.30784939651886 L 108.52512805055171 -309.0253952621474 M 107.79797652753969 -303.97979789746074 L 109.46911941622666 -308.6922581302469 M 107.04101189887112 -298.9415762030715 L 110.41208817994409 -308.3562373603935 M 109.65410788600397 -303.31517914034185 L 111.35402553299427 -308.0173360915134 M 110.58064140257952 -302.978618090794 L 112.29492267630226 -307.6755574894411 M 111.50614193395374 -302.6392267770621 L 113.23477082051028 -307.33090474688936 M 112.4306008345958 -302.2970083695584 L 114.1735611860597 -306.98338108341983 M 112.76825095718236 -300.3916248383346 L 115.11128500327307 -306.6329897454126 M 114.27635921029201 -301.60410308689995 L 116.04793351243607 -306.2797340060362 M 115.19764144325879 -301.2534226844958 L 116.98349796387939 -305.92361716521674 M 116.11784756147952 -300.8999281337603 L 117.91796961806034 -305.5646425496073 M 117.03696896888096 -300.5436227368504 L 118.85133974564462 -305.20281351255665 M 116.12639453145727 -295.5308862102833 L 119.78359962758776 -304.83813343407815 M 118.8719233176766 -299.8225927443919 L 120.71474055521657 -304.470605720818 M 119.78773911790883 -299.4578748843197 L 121.64475383031062 -304.1002338060236 M 120.70243592515786 -299.0903596489634 L 122.57363076518337 -303.72702114951113 M 121.61600519481537 -298.7200504714535 L 123.50136268276331 -303.35097123763364 M 121.8952708848496 -296.8052385536111 L 124.42794091667524 -302.97208758324825 M 123.4397269956668 -297.97106415296156 L 125.35335681132081 -302.59037372568343 M 124.34986249062712 -297.592394008609 L 126.27760172195977 -302.2058332307058 M 125.258836375688 -297.2109439152968 L 127.20066701479058 -301.81846969048706 M 126.16664015970166 -296.82671743632756 L 128.12254406703101 -301.42828672357007 M 125.10330645790265 -291.8441483470436 L 129.04322426699883 -301.0352879748355 M 127.97870351472754 -296.04994970427293 L 129.96269901419203 -300.63947711546734 M 128.88294615841315 -295.65741570733627 L 130.88095971936932 -300.240857842919 M 129.7859848465565 -295.2621198369721 L 131.79799780463043 -299.8394338808785 M 130.6878111434532 -294.8640657858231 L 132.71380470349607 -299.4352089792338 M 130.90843154596985 -292.9416140583836 L 133.62837186098812 -299.0281869140375 M 132.48779287739546 -294.05969804053296 L 134.54169073370937 -298.61837148747225 M 133.38593149997445 -293.6533918603652 L 135.45375278992347 -298.20576652781443 M 134.2828241025308 -293.2443425272888 L 136.36454950963451 -297.79037588939894 M 135.1784623067736 -292.83255386242365 L 137.2740723846668 -297.3722034525829 M 133.96336257351555 -287.8848063012494 L 138.18231291874412 -296.9512531237094 M 136.96594206582253 -292.0007739497189 L 139.0892626275692 -296.5275288350715 M 137.85776692294885 -291.58079047192217 L 139.99491303890306 -296.10103454487466 M 138.74830398655808 -291.1580832023503 L 140.89925569264395 -295.67177423720045 M 139.63754493772927 -290.7326560897085 L 141.80228214090653 -295.239751921969 M 139.79931397683194 -288.80436026584505 L 142.7039839481008 -294.80497163490185 M -98.67828677262291 -203.8545016624321 L -103.03529172952621 -212.85541871601728 M -97.77633620916495 -204.28864433915774 L -99.93492649008867 -208.7986873543741 M -96.87247565135466 -204.71879637589765 L -99.01111156815467 -209.2383357789091 M -95.96672275549446 -205.14494936992384 L -98.08536253136994 -209.67389687459624 M -95.05909521485229 -205.56709499662682 L -97.15769746361347 -210.10536213304513 M -94.149610759316 -205.9852250096784 L -96.92097572848478 -212.04855583127377 M -93.23828715504706 -206.39933124119258 L -95.29669175748904 -210.95597150487873 M -92.32514220413341 -206.80940560188526 L -94.36338747260423 -211.37509900218672 M -91.41019374424177 -207.21544008123217 L -93.42823986300377 -211.7900974304278 M -90.49345964826921 -207.61742674762544 L -92.49126719616142 -212.20095868288945 M -89.57495782399393 -208.0153577485284 L -93.5300177264103 -217.19999171882347 M -88.65470621372559 -208.40922531062907 L -90.6119199385446 -213.01023763786534 M -87.73272279395464 -208.799021739992 L -89.66958205954302 -213.40863953166462 M -86.80902557500131 -209.18473942220862 L -88.72549254612814 -213.8028726325632 M -85.88363260066376 -209.56637082254576 L -87.77966984044775 -214.1929292394851 M -84.95656194786548 -209.94390848609314 L -87.45732257538654 -216.1237661485547 M -84.02783172630238 -210.31734503790875 L -85.88289878980407 -214.96048257516856 M -83.09746007808883 -210.6866731831631 L -84.93198749697564 -215.33796431029677 M -82.1654651774034 -211.0518857072816 L -83.9794171154276 -215.7112395644745 M -81.23186523013383 -211.4129754760855 L -83.02520625297568 -216.080301046023 M -80.29667847352125 -211.76993543593127 L -83.84206862544133 -221.12034765522236 M -79.35992317580417 -212.12275861384845 L -81.11193767648749 -216.80575393622442 M -78.42161763586135 -212.47143811767575 L -80.15291733685403 -217.1621311736476 M -77.48178018285458 -212.81596713619575 L -79.19233126439225 -217.51426629625894 M -76.5404291758705 -213.156338939268 L -78.23019822349899 -217.86215242533785 M -75.59758300356197 -213.49254687796036 L -77.82285501053273 -219.77686139423312 M -74.65326008378892 -213.824584384679 L -76.30136644473306 -218.54515060315487 M -73.70747886325854 -214.15244497329664 L -75.33470538527979 -218.88024930998725 M -72.76025781716493 -214.47612223927922 L -74.36657271349785 -219.21107233973635 M -71.8116154488282 -214.79560985981107 L -73.39698734120172 -219.5376132299988 M -70.86157028933305 -215.11090159391844 L -73.99036612783388 -224.60882961012175 M -69.91014089716671 -215.4219912825913 L -71.45353428384269 -220.1778231608188 M -68.95734585785647 -215.72887284890382 L -70.47970456281593 -220.49147969530992 M -68.00320378360662 -216.0315402981329 L -69.5044980686057 -220.80082907842595 M -67.04773331293488 -216.32998771787535 L -68.5279338512089 -221.10586526723665 M -66.09095311030826 -216.6242092781635 L -68.03639027942327 -223.00070664470184 M -65.13288186577853 -216.91419923157886 L -66.5708085790812 -221.70297431161453 M -64.173538294617 -217.19995191336454 L -65.5902857554639 -221.9950355030618 M -63.212941136949155 -217.48146174153592 L -64.60848167014036 -222.28276017219198 M -62.25110915738835 -217.75872321698955 L -63.625415501986936 -222.56614269849896 M -61.28806114466933 -218.0317309236108 L -63.99415176439826 -227.65862416898415 M -60.3238159112813 -218.3004795283794 L -61.655573755590034 -223.1198592648312 M -59.35839229310029 -218.5649637814738 L -60.66883665686786 -223.3901824883792 M -58.39180914902131 -218.8251785163737 L -59.68091443360668 -223.65614193636088 M -57.42408536058993 -219.08111864996084 L -58.69182638419646 -223.91773241343887 M -56.45523983163339 -219.33277918261854 L -58.11704249585661 -225.78900535195498 M -55.4852914878914 -219.58015519832907 L -56.71023011397949 -224.42778610035919 M -54.51425927664643 -219.8232418647699 L -55.71776060231069 -224.67623934664894 M -53.54216216635352 -220.062034433408 L -54.72420268201255 -224.92030369512463 M -52.56901914626982 -220.2965282395927 L -53.729575761564575 -225.1599743781549 M -51.5948492260836 -220.52671870264666 L -53.872949314573304 -230.2637747252247 M -50.619671435542934 -220.75260132595545 L -51.73719265816851 -225.62611610658158 M -49.643504824083976 -220.97417169705537 L -50.73947539507182 -225.85257804621577 M -48.666368460458806 -221.1914254877196 L -49.74076697076781 -226.07462810905795 M -47.688281432362935 -221.40435845404284 L -48.74108689434756 -226.2922619575109 M -46.70926284606251 -221.61296643652418 L -48.08418530982283 -228.1363116414855 M -45.729331826020996 -221.81724536014823 L -46.73888991604413 -226.714264092282 M -44.74850751452563 -222.01719123446497 L -45.73641212571971 -226.9186241350749 M -43.76680907131354 -222.21280015366742 L -44.73304090563263 -227.11855147658915 M -42.78425567319734 -222.40406829666816 L -43.72879585595848 -227.31404221137987 M -41.800866513690686 -222.5909919271738 L -43.646526674194526 -232.41919311416265 M -40.81666080263324 -222.7735673937582 L -41.71776275351679 -227.69169867241618 M -39.83165776581541 -222.95179112993353 L -40.71101398491569 -227.8738570213992 M -38.84587664460288 -223.12565965422007 L -39.703469954293105 -228.05156400927757 M -37.859336695560636 -223.29516957021423 L -38.69515034333767 -228.22481616466595 M -36.87205719007687 -223.46031756665488 L -37.95741406849238 -230.0380409487165 M -35.884057413986525 -223.62110041748804 L -36.676263182550386 -228.55794252760805 M -34.8953566671945 -223.77751498192984 L -35.66573507030869 -228.71781022776435 M -33.90597426329873 -223.92955820452795 L -34.654510252144114 -228.8732100807631 M -32.91592952921279 -224.07722711522123 L -33.642608481646974 -229.0241390509736 M -31.925241804788502 -224.2205188293978 L -33.334857246474414 -234.12066955080405 M -30.933930442438037 -224.35943054795123 L -31.616853163749393 -229.3125726372433 M -29.942014806755886 -224.49395955733544 L -30.603039188103885 -229.45007161894821 M -28.949514274140643 -224.62410322961753 L -29.588627402862734 -229.5830884492663 M -27.95644823241644 -224.74985902252925 L -28.573637623871516 -229.71162052980418 M -26.962836080454267 -224.87122447951648 L -27.756507544203966 -231.49047897319429 M -25.96869722779301 -224.98819722978752 L -26.54200340408754 -229.95522048604698 M -24.974051094260258 -225.100774988359 L -25.52539864989008 -230.07028360319217 M -23.97891710959304 -225.20895555610085 L -24.508295274357938 -230.18085245353046 M -22.98331471305818 -225.31273681977916 L -23.49071314591507 -230.2869248771745 M -21.987263353072635 -225.41211675209738 L -22.958080931602524 -235.36488085204556 M -20.990782486823562 -225.50709341173598 L -21.454192150365383 -230.48557224404368 M -19.993891579888203 -225.59766494339038 L -20.43529306531371 -230.57814330682737 M -18.996610105853705 -225.6838295778072 L -19.41599479068453 -230.66621018210967 M -17.998957545936637 -225.76558563181882 L -18.396317237777655 -230.74977114956394 M -17.000953388602525 -225.84293150837624 L -17.501389304201698 -232.49078893305244 M -16.002617129185058 -225.9158656965802 L -16.355903978985886 -230.90336891981303 M -15.003968269505362 -225.9843867717109 L -15.335208131188852 -230.97340272217969 M -14.005026317490984 -226.04849339525563 L -14.314212720511302 -231.03892461592056 M -13.0058107867948 -226.10818431493504 L -13.292937691405454 -231.09993332111 M -12.006341196413912 -226.16345836472752 L -12.536464791157563 -236.14939692724113 M -11.006637070308248 -226.21431446489203 L -11.24962858263897 -231.20840648696523 M -10.00671793701928 -226.2607516219892 L -10.22763441763466 -231.2558688286814 M -9.006603329288488 -226.30276892890063 L -9.205440462735048 -231.29881374398815 M -8.006312783675787 -226.34036556484682 L -8.183066685805104 -231.33724039398572 M -7.0058658401779565 -226.373540795403 L -7.212088797570737 -233.03701710557988 M -6.005282041846861 -226.4022939725135 L -6.137859554487607 -231.40053598377526 M -5.004580934407768 -226.42662453450458 L -5.115066151832965 -231.4254036871308 M -4.0037820658774965 -226.4465320060952 L -4.092172829833426 -231.44575065232857 M -3.0029049861825254 -226.46201599840646 L -3.0691995700156163 -231.46157648190442 M -2.001969246777185 -226.47307620896908 L -2.090363464158309 -236.47268552445402 M -1.0009944002616342 -226.47971242172926 L -1.0230931704491524 -231.4796635859264 M 0 -226.4819245070532 L 0 -231.4819245070532 M 1.0009944002616218 -226.47971242172926 L 1.0230931704491395 -231.4796635859264 M 2.0019692467771724 -226.47307620896908 L 2.0461663554677343 -231.47288086671153 M 3.0029049861825126 -226.46201599840646 L 3.0912977646266335 -233.1280966430704 M 4.003782065877484 -226.4465320060952 L 4.092172829833413 -231.44575065232857 M 5.004580934407768 -226.42662453450458 L 5.115066151832965 -231.4254036871308 M 6.005282041846849 -226.4022939725135 L 6.137859554487594 -231.40053598377526 M 7.005865840177943 -226.373540795403 L 7.160533058222529 -231.37114802803566 M 8.006312783675774 -226.34036556484682 L 8.359820587934406 -236.33411522312466 M 9.006603329288476 -226.30276892890063 L 9.205440462735035 -231.29881374398815 M 10.006717937019268 -226.2607516219892 L 10.227634417634647 -231.2558688286814 M 11.006637070308235 -226.21431446489203 L 11.249628582638957 -231.20840648696523 M 12.0063411964139 -226.16345836472752 L 12.271402993785724 -231.15642764598434 M 13.0058107867948 -226.10818431493504 L 13.388646659609005 -232.76384965650166 M 14.005026317490959 -226.04849339525563 L 14.314212720511275 -231.03892461592056 M 15.00396826950535 -225.9843867717109 L 15.335208131188839 -230.97340272217969 M 16.002617129185047 -225.9158656965802 L 16.35590397898587 -230.90336891981303 M 17.000953388602515 -225.84293150837624 L 17.376280325301895 -230.8288245768834 M 17.998957545936637 -225.76558563181882 L 18.793676929618673 -235.73395666730903 M 18.99661010585368 -225.6838295778072 L 19.4159947906845 -230.66621018210967 M 19.993891579888192 -225.59766494339038 L 20.435293065313697 -230.57814330682737 M 20.99078248682355 -225.50709341173598 L 21.454192150365373 -230.48557224404368 M 21.987263353072635 -225.41211675209738 L 22.47267214233758 -230.38849880207147 M 22.98331471305818 -225.31273681977916 L 23.659845956867365 -231.94498756297293 M 23.97891710959302 -225.20895555610085 L 24.508295274357913 -230.18085245353046 M 24.974051094260247 -225.100774988359 L 25.525398649890068 -230.07028360319217 M 25.968697227792997 -224.98819722978752 L 26.542003404087527 -229.95522048604698 M 26.962836080454267 -224.87122447951648 L 27.55808967826654 -229.83566534977484 M 27.95644823241644 -224.74985902252925 L 29.19082701532659 -234.67338203707914 M 28.94951427414062 -224.62410322961753 L 29.58862740286271 -229.5830884492663 M 29.94201480675587 -224.49395955733544 L 30.60303918810387 -229.45007161894821 M 30.933930442438026 -224.35943054795123 L 31.616853163749383 -229.3125726372433 M 31.925241804788502 -224.2205188293978 L 32.630049525631456 -229.17059419010093 M 32.91592952921279 -224.07722711522123 L 33.88483479912504 -230.67310969622437 M 33.9059742632987 -223.92955820452795 L 34.65451025214409 -228.8732100807631 M 34.895356667194484 -223.77751498192984 L 35.66573507030868 -228.71781022776435 M 35.88405741398651 -223.62110041748804 L 36.67626318255037 -228.55794252760805 M 36.87205719007687 -223.46031756665488 L 37.6860748488885 -228.39361010320113 M 37.859336695560636 -223.29516957021423 L 39.5309639911147 -233.1544627591177 M 38.84587664460286 -223.12565965422007 L 39.70346995429308 -228.05156400927757 M 39.8316577658154 -222.95179112993353 L 40.711013984915674 -227.8738570213992 M 40.81666080263322 -222.7735673937582 L 41.71776275351677 -227.69169867241618 M 41.800866513690686 -222.5909919271738 L 42.723696593942606 -227.50509252066823 M 42.78425567319734 -222.40406829666816 L 44.04364258354553 -228.95070018295044 M 43.76680907131351 -222.21280015366742 L 44.7330409056326 -227.11855147658915 M 44.74850751452562 -222.01719123446497 L 45.7364121257197 -226.9186241350749 M 45.72933182602098 -221.81724536014823 L 46.738889916044116 -226.714264092282 M 46.70926284606251 -221.61296643652418 L 47.74045469388275 -226.50547534024517 M 47.688281432362935 -221.40435845404284 L 49.79389235633218 -231.18016546097897 M 48.666368460458784 -221.1914254877196 L 49.74076697076779 -226.07462810905795 M 49.64350482408397 -220.97417169705537 L 50.73947539507181 -225.85257804621577 M 50.61967143554293 -220.75260132595545 L 51.7371926581685 -225.62611610658158 M 51.594849226083596 -220.52671870264666 L 52.73389927032844 -225.39524671393568 M 52.56901914626982 -220.2965282395927 L 54.116427966662826 -226.78112309100896 M 53.542162166353506 -220.062034433408 L 54.72420268201254 -224.92030369512463 M 54.51425927664642 -219.8232418647699 L 55.71776060231068 -224.67623934664894 M 55.485291487891395 -219.58015519832907 L 56.710230113979485 -224.42778610035919 M 56.45523983163338 -219.33277918261854 L 57.70159182980079 -224.1749488096209 M 57.42408536058993 -219.08111864996084 L 59.959567407803 -228.7543461769169 M 58.3918091490213 -218.8251785163737 L 59.68091443360667 -223.65614193636088 M 59.35839229310029 -218.56496378147384 L 60.66883665686786 -223.39018248837922 M 60.323815911281294 -218.3004795283794 L 61.65557375559003 -223.1198592648312 M 61.28806114466933 -218.0317309236108 L 62.6411064545338 -222.8451775462975 M 62.25110915738833 -217.75872321698955 L 64.0835176168531 -224.16861585900207 M 63.21294113694914 -217.48146174153592 L 64.60848167014035 -222.28276017219198 M 64.17353829461699 -217.19995191336454 L 65.59028575546388 -221.9950355030618 M 65.13288186577851 -216.91419923157886 L 66.57080857908119 -221.70297431161453 M 66.09095311030826 -216.6242092781635 L 67.55003098714452 -221.40658230306724 M 67.04773331293485 -216.32998771787538 L 70.00813438948288 -225.881742816598 M 68.00320378360661 -216.0315402981329 L 69.50449806860568 -220.80082907842595 M 68.95734585785645 -215.72887284890385 L 70.47970456281591 -220.49147969530992 M 69.9101408971667 -215.4219912825913 L 71.45353428384267 -220.1778231608188 M 70.86157028933305 -215.11090159391844 L 72.42596820858347 -219.8598656020201 M 71.81161544882818 -214.7956098598111 L 73.92544463865953 -221.1182810200614 M 72.76025781716493 -214.47612223927922 L 74.36657271349783 -219.21107233973635 M 73.70747886325853 -214.15244497329664 L 75.33470538527979 -218.88024930998725 M 74.65326008378891 -213.824584384679 L 76.30136644473305 -218.5451506031549 M 75.59758300356197 -213.49254687796036 L 77.26653700879004 -218.20578276516494 M 76.54042917587047 -213.156338939268 L 79.91996727112746 -222.56796591140767 M 77.48178018285456 -212.81596713619575 L 79.19233126439224 -217.51426629625894 M 78.42161763586134 -212.47143811767575 L 80.15291733685402 -217.1621311736476 M 79.35992317580416 -212.12275861384845 L 81.11193767648747 -216.80575393622442 M 80.29667847352125 -211.76993543593127 L 82.06937354948128 -216.44514154557683 M 81.2318652301338 -211.4129754760855 L 83.62298659392293 -217.63607623600217 M 82.16546517740339 -211.0518857072816 L 83.97941711542758 -215.7112395644745 M 83.09746007808882 -210.68667318316312 L 84.93198749697564 -215.3379643102968 M 84.02783172630237 -210.31734503790875 L 85.88289878980406 -214.96048257516856 M 84.95656194786548 -209.94390848609314 L 86.83213241850628 -214.5788017329393 M 85.88363260066373 -209.56637082254576 L 89.6757070802317 -218.81948765642446 M 86.8090255750013 -209.18473942220862 L 88.72549254612812 -213.8028726325632 M 87.73272279395462 -208.799021739992 L 89.669582059543 -213.40863953166462 M 88.65470621372558 -208.40922531062907 L 90.61191993854459 -213.01023763786534 M 89.57495782399393 -208.0153577485284 L 91.55248777520212 -212.60767473367594 M 90.49345964826918 -207.61742674762544 L 93.1572030454588 -213.72880266131077 M 91.41019374424175 -207.2154400812322 L 93.42823986300377 -211.79009743042783 M 92.3251422041334 -206.80940560188526 L 94.36338747260423 -211.37509900218672 M 93.23828715504706 -206.39933124119258 L 95.29669175748904 -210.95597150487873 M 94.149610759316 -205.9852250096784 L 96.22813448619259 -210.53272312587492 M 95.05909521485226 -205.56709499662682 L 99.25629971237463 -214.64362926946347 M 95.96672275549444 -205.14494936992384 L 98.08536253136992 -209.67389687459624 M 96.87247565135465 -204.71879637589765 L 99.01111156815466 -209.2383357789091 M 97.77633620916495 -204.28864433915774 L 99.93492649008867 -208.7986873543741 M 98.67828677262291 -203.8545016624321 L 100.85678925107456 -208.3549601892247" fill="rgba(100,200,100,0.5)"/><text x="-137.03987750412654" y="-283.10377946524113" transform="rotate(-25.829875884058985, -137.03987750412654, -283.10377946524113)" text-anchor="start" alignment-baseline="baseline" font-size="2.5" stroke="#000000" stroke-width="0.05" fill="#000000" font-weight="100" font-style="normal" font-family="Arial, Helvetica, sans-serif">0</text> <text x="-128.32448824670246" y="-287.15936984551246" transform="rotate(-24.078697858021087, -128.32448824670246, -287.15936984551246)" text-anchor="middle" alignment-baseline="baseline" font-size="2.5" stroke="#000000" stroke-width="0.05" fill="#000000" font-weight="100" font-style="normal" font-family="Arial, Helvetica, sans-serif">10</text> <text x="-119.4892343546152" y="-290.9467319754558" transform="rotate(-22.32751983198319, -119.4892343546152, -290.9467319754558)" text-anchor="middle" alignment-baseline="baseline" font-size="2.5" stroke="#000000" stroke-width="0.05" fill="#000000" font-weight="100" font-style="normal" font-family="Arial, Helvetica, sans-serif">20</text> <text x="-110.5423686133962" y="-294.4623281766106" transform="rotate(-20.576341805945297, -110.5423686133962, -294.4623281766106)" text-anchor="middle" alignment-baseline="baseline" font-size="2.5" stroke="#000000" stroke-width="0.05" fill="#000000" font-weight="100" font-style="normal" font-family="Arial, Helvetica, sans-serif">30</text> <text x="-101.4922480623612" y="-297.70287462014545" transform="rotate(-18.825163779907395, -101.4922480623612, -297.70287462014545)" text-anchor="middle" alignment-baseline="baseline" font-size="2.5" stroke="#000000" stroke-width="0.05" fill="#000000" font-weight="100" font-style="normal" font-family="Arial, Helvetica, sans-serif">40</text> <text x="-92.3473261885128" y="-300.665344394199" transform="rotate(-17.0739857538695, -92.3473261885128, -300.665344394199)" text-anchor="middle" alignment-baseline="baseline" font-size="2.5" stroke="#000000" stroke-width="0.05" fill="#000000" font-weight="100" font-style="normal" font-family="Arial, Helvetica, sans-serif">50</text> <text x="-83.1161450303536" y="-303.3469703312415" transform="rotate(-15.3228077278316, -83.1161450303536, -303.3469703312415)" text-anchor="middle" alignment-baseline="baseline" font-size="2.5" stroke="#000000" stroke-width="0.05" fill="#000000" font-weight="100" font-style="normal" font-family="Arial, Helvetica, sans-serif">60</text> <text x="-73.80732719898575" y="-305.74524759281496" transform="rotate(-13.571629701793702, -73.80732719898575, -305.74524759281496)" text-anchor="middle" alignment-baseline="baseline" font-size="2.5" stroke="#000000" stroke-width="0.05" fill="#000000" font-weight="100" font-style="normal" font-family="Arial, Helvetica, sans-serif">70</text> <text x="-64.42956782394961" y="-307.85793600923944" transform="rotate(-11.820451675755807, -64.42956782394961, -307.85793600923944)" text-anchor="middle" alignment-baseline="baseline" font-size="2.5" stroke="#000000" stroke-width="0.05" fill="#000000" font-weight="100" font-style="normal" font-family="Arial, Helvetica, sans-serif">80</text> <text x="-54.99162643132477" y="-309.68306217209795" transform="rotate(-10.06927364971791, -54.99162643132477, -309.68306217209795)" text-anchor="middle" alignment-baseline="baseline" font-size="2.5" stroke="#000000" stroke-width="0.05" fill="#000000" font-weight="100" font-style="normal" font-family="Arial, Helvetica, sans-serif">90</text> <text x="-45.50231876167996" y="-311.21892127754757" transform="rotate(-8.318095623680012, -45.50231876167996, -311.21892127754757)" text-anchor="middle" alignment-baseline="baseline" font-size="2.5" stroke="#000000" stroke-width="0.05" fill="#000000" font-weight="100" font-style="normal" font-family="Arial, Helvetica, sans-serif">100</text> <text x="-35.97050853551443" y="-312.46407871873265" transform="rotate(-6.566917597642114, -35.97050853551443, -312.46407871873265)" text-anchor="middle" alignment-baseline="baseline" font-size="2.5" stroke="#000000" stroke-width="0.05" fill="#000000" font-weight="100" font-style="normal" font-family="Arial, Helvetica, sans-serif">110</text> <text x="-26.405099173882498" y="-313.4173714258151" transform="rotate(-4.815739571604216, -26.405099173882498, -313.4173714258151)" text-anchor="middle" alignment-baseline="baseline" font-size="2.5" stroke="#000000" stroke-width="0.05" fill="#000000" font-weight="100" font-style="normal" font-family="Arial, Helvetica, sans-serif">120</text> <text x="-16.815025481934764" y="-314.0779089523677" transform="rotate(-3.064561545566318, -16.815025481934764, -314.0779089523677)" text-anchor="middle" alignment-baseline="baseline" font-size="2.5" stroke="#000000" stroke-width="0.05" fill="#000000" font-weight="100" font-style="normal" font-family="Arial, Helvetica, sans-serif">130</text> <text x="-7.209245303144321" y="-314.445074307118" transform="rotate(-1.3133835195284203, -7.209245303144321, -314.445074307118)" text-anchor="middle" alignment-baseline="baseline" font-size="2.5" stroke="#000000" stroke-width="0.05" fill="#000000" font-weight="100" font-style="normal" font-family="Arial, Helvetica, sans-serif">140</text> <text x="2.403268847986578" y="-314.51852453026385" transform="rotate(0.4377945065094745, 2.403268847986578, -314.51852453026385)" text-anchor="middle" alignment-baseline="baseline" font-size="2.5" stroke="#000000" stroke-width="0.05" fill="#000000" font-weight="100" font-style="normal" font-family="Arial, Helvetica, sans-serif">150</text> <text x="12.013538166923755" y="-314.29819101382327" transform="rotate(2.188972532547372, 12.013538166923755, -314.29819101382327)" text-anchor="middle" alignment-baseline="baseline" font-size="2.5" stroke="#000000" stroke-width="0.05" fill="#000000" font-weight="100" font-style="normal" font-family="Arial, Helvetica, sans-serif">160</text> <text x="21.61258594597355" y="-313.78427956571977" transform="rotate(3.9401505585852736, 21.61258594597355, -313.78427956571977)" text-anchor="middle" alignment-baseline="baseline" font-size="2.5" stroke="#000000" stroke-width="0.05" fill="#000000" font-weight="100" font-style="normal" font-family="Arial, Helvetica, sans-serif">170</text> <text x="31.19144595919671" y="-312.9772702175422" transform="rotate(5.691328584623165, 31.19144595919671, -312.9772702175422)" text-anchor="middle" alignment-baseline="baseline" font-size="2.5" stroke="#000000" stroke-width="0.05" fill="#000000" font-weight="100" font-style="normal" font-family="Arial, Helvetica, sans-serif">180</text> <text x="40.74117083753178" y="-311.8779167761593" transform="rotate(7.442506610661063, 40.74117083753178, -311.8779167761593)" text-anchor="middle" alignment-baseline="baseline" font-size="2.5" stroke="#000000" stroke-width="0.05" fill="#000000" font-weight="100" font-style="normal" font-family="Arial, Helvetica, sans-serif">190</text> <text x="50.25284042630434" y="-310.4872461196084" transform="rotate(9.193684636698961, 50.25284042630434, -310.4872461196084)" text-anchor="middle" alignment-baseline="baseline" font-size="2.5" stroke="#000000" stroke-width="0.05" fill="#000000" font-weight="100" font-style="normal" font-family="Arial, Helvetica, sans-serif">200</text> <text x="59.71757011731626" y="-308.8065572379144" transform="rotate(10.944862662736858, 59.71757011731626, -308.8065572379144)" text-anchor="middle" alignment-baseline="baseline" font-size="2.5" stroke="#000000" stroke-width="0.05" fill="#000000" font-weight="100" font-style="normal" font-family="Arial, Helvetica, sans-serif">210</text> <text x="69.12651914773186" y="-306.8374200197364" transform="rotate(12.696040688774756, 69.12651914773186, -306.8374200197364)" text-anchor="middle" alignment-baseline="baseline" font-size="2.5" stroke="#000000" stroke-width="0.05" fill="#000000" font-weight="100" font-style="normal" font-family="Arial, Helvetica, sans-serif">220</text> <text x="78.47089885800918" y="-304.58167378597483" transform="rotate(14.447218714812655, 78.47089885800918, -304.58167378597483)" text-anchor="middle" alignment-baseline="baseline" font-size="2.5" stroke="#000000" stroke-width="0.05" fill="#000000" font-weight="100" font-style="normal" font-family="Arial, Helvetica, sans-serif">230</text> <text x="87.74198090116296" y="-302.0414255717083" transform="rotate(16.19839674085055, 87.74198090116296, -302.0414255717083)" text-anchor="middle" alignment-baseline="baseline" font-size="2.5" stroke="#000000" stroke-width="0.05" fill="#000000" font-weight="100" font-style="normal" font-family="Arial, Helvetica, sans-serif">240</text> <text x="96.93110539569108" y="-299.21904815806647" transform="rotate(17.94957476688845, 96.93110539569108, -299.21904815806647)" text-anchor="middle" alignment-baseline="baseline" font-size="2.5" stroke="#000000" stroke-width="0.05" fill="#000000" font-weight="100" font-style="normal" font-family="Arial, Helvetica, sans-serif">250</text> <text x="106.02968901454923" y="-296.1171778558749" transform="rotate(19.700752792926348, 106.02968901454923, -296.1171778558749)" text-anchor="middle" alignment-baseline="baseline" font-size="2.5" stroke="#000000" stroke-width="0.05" fill="#000000" font-weight="100" font-style="normal" font-family="Arial, Helvetica, sans-serif">260</text> <text x="115.02923300261811" y="-292.73871204314486" transform="rotate(21.451930818964247, 115.02923300261811, -292.73871204314486)" text-anchor="middle" alignment-baseline="baseline" font-size="2.5" stroke="#000000" stroke-width="0.05" fill="#000000" font-weight="100" font-style="normal" font-family="Arial, Helvetica, sans-serif">270</text> <text x="123.9213311151738" y="-289.086806458706" transform="rotate(23.20310884500214, 123.9213311151738, -289.086806458706)" text-anchor="middle" alignment-baseline="baseline" font-size="2.5" stroke="#000000" stroke-width="0.05" fill="#000000" font-weight="100" font-style="normal" font-family="Arial, Helvetica, sans-serif">280</text> <text x="132.697677469947" y="-285.1648722545114" transform="rotate(24.954286871040043, 132.697677469947, -285.1648722545114)" text-anchor="middle" alignment-baseline="baseline" font-size="2.5" stroke="#000000" stroke-width="0.05" fill="#000000" font-weight="100" font-style="normal" font-family="Arial, Helvetica, sans-serif">290</text> <text x="-104.3423932165972" y="-215.55569383209283" transform="rotate(-25.829875884058985, -104.3423932165972, -215.55569383209283)" text-anchor="start" alignment-baseline="hanging" stroke="#000000" stroke-width="0.05" font-size="2.5" fill="#000000" font-weight="100" font-style="normal" font-family="Arial, Helvetica, sans-serif">0</text> <text x="-94.71653569713523" y="-219.955381909912" transform="rotate(-23.297535111112026, -94.71653569713523, -219.955381909912)" text-anchor="middle" alignment-baseline="hanging" stroke="#000000" stroke-width="0.05" font-size="2.5" fill="#000000" font-weight="100" font-style="normal" font-family="Arial, Helvetica, sans-serif">10</text> <text x="-84.90568567101735" y="-223.9254713210097" transform="rotate(-20.765194338165067, -84.90568567101735, -223.9254713210097)" text-anchor="middle" alignment-baseline="hanging" stroke="#000000" stroke-width="0.05" font-size="2.5" fill="#000000" font-weight="100" font-style="normal" font-family="Arial, Helvetica, sans-serif">20</text> <text x="-74.92900487938414" y="-227.45820801498274" transform="rotate(-18.232853565218107, -74.92900487938414, -227.45820801498274)" text-anchor="middle" alignment-baseline="hanging" stroke="#000000" stroke-width="0.05" font-size="2.5" fill="#000000" font-weight="100" font-style="normal" font-family="Arial, Helvetica, sans-serif">30</text> <text x="-64.80597895031694" y="-230.54669214259616" transform="rotate(-15.700512792271146, -64.80597895031694, -230.54669214259616)" text-anchor="middle" alignment-baseline="hanging" stroke="#000000" stroke-width="0.05" font-size="2.5" fill="#000000" font-weight="100" font-style="normal" font-family="Arial, Helvetica, sans-serif">40</text> <text x="-54.55637934112021" y="-233.18489153199812" transform="rotate(-13.16817201932419, -54.55637934112021, -233.18489153199812)" text-anchor="middle" alignment-baseline="hanging" stroke="#000000" stroke-width="0.05" font-size="2.5" fill="#000000" font-weight="100" font-style="normal" font-family="Arial, Helvetica, sans-serif">50</text> <text x="-44.20022472234568" y="-235.3676534702593" transform="rotate(-10.63583124637723, -44.20022472234568, -235.3676534702593)" text-anchor="middle" alignment-baseline="hanging" stroke="#000000" stroke-width="0.05" font-size="2.5" fill="#000000" font-weight="100" font-style="normal" font-family="Arial, Helvetica, sans-serif">60</text> <text x="-33.75774187898019" y="-237.0907147672259" transform="rotate(-8.103490473430268, -33.75774187898019, -237.0907147672259)" text-anchor="middle" alignment-baseline="hanging" stroke="#000000" stroke-width="0.05" font-size="2.5" fill="#000000" font-weight="100" font-style="normal" font-family="Arial, Helvetica, sans-serif">70</text> <text x="-23.249326205161488" y="-238.35071008203" transform="rotate(-5.57114970048331, -23.249326205161488, -238.35071008203)" text-anchor="middle" alignment-baseline="hanging" stroke="#000000" stroke-width="0.05" font-size="2.5" fill="#000000" font-weight="100" font-style="normal" font-family="Arial, Helvetica, sans-serif">80</text> <text x="-12.695501869580658" y="-239.1451784959952" transform="rotate(-3.0388089275363535, -12.695501869580658, -239.1451784959952)" text-anchor="middle" alignment-baseline="hanging" stroke="#000000" stroke-width="0.05" font-size="2.5" fill="#000000" font-weight="100" font-style="normal" font-family="Arial, Helvetica, sans-serif">90</text> <text x="-2.1168817293726465" y="-239.4725683190995" transform="rotate(-0.5064681545893944, -2.1168817293726465, -239.4725683190995)" text-anchor="middle" alignment-baseline="hanging" stroke="#000000" stroke-width="0.05" font-size="2.5" fill="#000000" font-weight="100" font-style="normal" font-family="Arial, Helvetica, sans-serif">100</text> <text x="8.465872929211995" y="-239.332240120608" transform="rotate(2.025872618357565, 8.465872929211995, -239.332240120608)" text-anchor="middle" alignment-baseline="hanging" stroke="#000000" stroke-width="0.05" font-size="2.5" fill="#000000" font-weight="100" font-style="normal" font-family="Arial, Helvetica, sans-serif">110</text> <text x="19.032092744723283" y="-238.7244679779561" transform="rotate(4.558213391304528, 19.032092744723283, -238.7244679779561)" text-anchor="middle" alignment-baseline="hanging" stroke="#000000" stroke-width="0.05" font-size="2.5" fill="#000000" font-weight="100" font-style="normal" font-family="Arial, Helvetica, sans-serif">120</text> <text x="29.561140650199633" y="-237.6504389414441" transform="rotate(7.090554164251487, 29.561140650199633, -237.6504389414441)" text-anchor="middle" alignment-baseline="hanging" stroke="#000000" stroke-width="0.05" font-size="2.5" fill="#000000" font-weight="100" font-style="normal" font-family="Arial, Helvetica, sans-serif">130</text> <text x="40.032452179780925" y="-236.11225071578875" transform="rotate(9.622894937198446, 40.032452179780925, -236.11225071578875)" text-anchor="middle" alignment-baseline="hanging" stroke="#000000" stroke-width="0.05" font-size="2.5" fill="#000000" font-weight="100" font-style="normal" font-family="Arial, Helvetica, sans-serif">140</text> <text x="50.42557563352295" y="-234.1129075630598" transform="rotate(12.155235710145405, 50.42557563352295, -234.1129075630598)" text-anchor="middle" alignment-baseline="hanging" stroke="#000000" stroke-width="0.05" font-size="2.5" fill="#000000" font-weight="100" font-style="normal" font-family="Arial, Helvetica, sans-serif">150</text> <text x="60.720212021966915" y="-231.6563144350037" transform="rotate(14.687576483092366, 60.720212021966915, -231.6563144350037)" text-anchor="middle" alignment-baseline="hanging" stroke="#000000" stroke-width="0.05" font-size="2.5" fill="#000000" font-weight="100" font-style="normal" font-family="Arial, Helvetica, sans-serif">160</text> <text x="70.89625471244729" y="-228.74726934621478" transform="rotate(17.219917256039317, 70.89625471244729, -228.74726934621478)" text-anchor="middle" alignment-baseline="hanging" stroke="#000000" stroke-width="0.05" font-size="2.5" fill="#000000" font-weight="100" font-style="normal" font-family="Arial, Helvetica, sans-serif">170</text> <text x="80.93382869970456" y="-225.39145400304957" transform="rotate(19.752258028986276, 80.93382869970456, -225.39145400304957)" text-anchor="middle" alignment-baseline="hanging" stroke="#000000" stroke-width="0.05" font-size="2.5" fill="#000000" font-weight="100" font-style="normal" font-family="Arial, Helvetica, sans-serif">180</text> <text x="90.81332942410211" y="-221.59542270658807" transform="rotate(22.284598801933235, 90.81332942410211, -221.59542270658807)" text-anchor="middle" alignment-baseline="hanging" stroke="#000000" stroke-width="0.05" font-size="2.5" fill="#000000" font-weight="100" font-style="normal" font-family="Arial, Helvetica, sans-serif">190</text> <text x="100.51546106163133" y="-217.36658955131446" transform="rotate(24.816939574880198, 100.51546106163133, -217.36658955131446)" text-anchor="middle" alignment-baseline="hanging" stroke="#000000" stroke-width="0.05" font-size="2.5" fill="#000000" font-weight="100" font-style="normal" font-family="Arial, Helvetica, sans-serif">200</text></g><g stroke="purple" stroke-width="0.1" stroke-dasharray="1,0.5" fill="none"><path d="M 111.34748787795506 -308.0196994975869 A 327.5277062102 327.5277062102 0 0 0 -111.34748787795517 -308.0196994975869 L  -76.99560331986262 -212.99234539726754 A 226.4819245070532 226.4819245070532 0  0  1  76.99560331986255 -212.99234539726757 Z"/></g></svg>